<?xml version="1.0" standalone="no"?>
<!DOCTYPE svg PUBLIC "-//W3C//DTD SVG 20010904//EN"
 "http://www.w3.org/TR/2001/REC-SVG-20010904/DTD/svg10.dtd">
<svg version="1.0" xmlns="http://www.w3.org/2000/svg"
 width="640.000000pt" height="640.000000pt" viewBox="0 0 640.000000 640.000000"
 preserveAspectRatio="xMidYMid meet">
<metadata>
Created by potrace 1.14, written by Peter Selinger 2001-2017
</metadata>
<g transform="translate(0.000000,640.000000) scale(0.100000,-0.100000)"
fill="#000000" stroke="none">
<path d="M3176 6178 c-10 -24 -27 -61 -36 -83 -10 -22 -23 -57 -31 -77 -7 -21
-17 -38 -21 -38 -4 0 -7 -3 -6 -7 0 -5 -2 -17 -7 -28 -20 -50 -304 -719 -337
-795 -11 -25 -23 -54 -28 -65 -4 -11 -12 -31 -18 -45 -6 -14 -20 -47 -32 -75
-12 -27 -25 -59 -30 -70 -19 -43 -50 -114 -90 -210 -23 -55 -54 -129 -70 -165
-25 -57 -40 -94 -45 -110 -1 -3 -13 -31 -28 -64 -15 -32 -27 -60 -27 -62 0 -5
-58 -135 -68 -153 -5 -8 -28 -15 -56 -17 -26 -1 -82 -5 -124 -9 -43 -4 -95 -8
-117 -10 -93 -8 -203 -17 -240 -20 -22 -2 -76 -7 -120 -10 -44 -3 -93 -8 -110
-10 -16 -3 -64 -7 -105 -10 -41 -3 -95 -7 -120 -10 -25 -2 -79 -6 -120 -10
-41 -3 -97 -8 -125 -10 -27 -3 -79 -7 -115 -10 -65 -5 -137 -11 -240 -20 -30
-3 -84 -8 -120 -11 -36 -2 -90 -7 -120 -9 -30 -3 -84 -7 -120 -10 -36 -3 -85
-7 -110 -10 -50 -5 -197 -17 -219 -18 -14 0 11 -25 134 -132 37 -33 73 -64 79
-70 6 -5 43 -37 81 -70 78 -67 106 -91 185 -161 30 -26 63 -55 73 -64 10 -8
29 -24 41 -35 57 -51 372 -325 460 -400 32 -27 68 -59 80 -70 34 -31 142 -125
241 -210 50 -43 97 -85 106 -94 9 -9 32 -28 51 -43 19 -15 47 -40 64 -55 16
-15 51 -46 77 -67 46 -37 49 -42 43 -75 -8 -46 -13 -68 -25 -110 -6 -19 -9
-37 -6 -39 3 -3 0 -11 -6 -19 -6 -7 -9 -13 -6 -13 3 0 -2 -28 -12 -62 -9 -35
-17 -70 -16 -78 1 -8 -2 -19 -6 -25 -4 -5 -9 -23 -12 -40 -3 -16 -17 -79 -32
-140 -15 -60 -29 -121 -31 -134 -3 -12 -12 -53 -21 -90 -8 -36 -17 -75 -19
-86 -2 -11 -12 -56 -24 -99 -11 -44 -22 -89 -25 -100 -5 -25 -9 -41 -29 -127
-8 -37 -17 -78 -20 -90 -2 -13 -9 -44 -15 -69 -7 -25 -13 -53 -16 -63 -2 -10
-6 -26 -9 -35 -3 -9 -8 -29 -11 -45 -3 -15 -7 -39 -10 -55 -3 -15 -9 -36 -12
-47 -7 -22 -9 -33 -17 -83 -3 -19 -8 -37 -10 -41 -5 -7 -65 -258 -72 -301 -3
-14 -7 -33 -10 -42 -3 -9 -7 -25 -9 -35 -2 -10 -9 -40 -15 -68 -20 -84 -20
-86 -7 -78 7 4 35 22 64 40 29 18 57 33 63 33 5 0 10 4 10 8 0 5 15 16 33 25
17 9 39 21 47 27 18 12 652 395 695 420 112 65 371 226 377 235 4 5 8 7 8 2 0
-7 56 27 158 94 23 16 45 29 48 29 3 0 29 15 58 33 144 89 279 171 302 183 12
6 38 23 59 37 43 30 45 29 146 -35 42 -26 80 -48 86 -48 5 0 18 -8 29 -17 10
-10 39 -29 64 -42 25 -13 52 -29 60 -36 8 -6 44 -29 80 -50 36 -21 82 -49 102
-62 20 -14 50 -32 67 -42 16 -9 47 -26 68 -39 21 -13 55 -33 75 -45 184 -110
254 -152 258 -157 3 -3 76 -48 163 -100 87 -52 175 -105 195 -118 20 -12 44
-25 52 -29 8 -4 17 -9 20 -12 3 -4 130 -82 283 -174 181 -109 277 -161 274
-150 -3 10 -13 48 -21 85 -9 38 -23 96 -31 130 -27 117 -47 203 -51 228 -3 14
-8 34 -11 45 -4 11 -8 25 -9 30 -9 43 -14 63 -19 85 -3 14 -8 36 -11 50 -3 14
-11 50 -19 80 -14 57 -18 72 -34 152 -6 26 -18 76 -27 110 -9 35 -17 70 -19
78 -9 42 -29 126 -51 220 -14 58 -28 114 -30 125 -7 32 -24 108 -30 135 -2 14
-9 39 -14 55 -5 17 -14 57 -21 90 -7 33 -13 62 -14 65 -12 52 -16 68 -19 85
-2 11 -12 49 -21 85 -9 36 -19 76 -21 90 -3 14 -7 33 -10 42 -3 9 -7 27 -9 40
-3 13 -10 47 -17 76 -13 60 -23 44 97 147 38 33 76 67 85 75 9 8 38 33 64 55
27 22 56 47 65 55 9 9 52 47 96 85 44 39 85 75 91 80 6 6 37 33 69 60 32 28
63 55 69 60 13 12 160 140 195 170 40 34 114 99 133 118 10 9 21 17 24 17 4 0
16 10 28 23 11 13 50 48 85 78 36 30 72 61 81 69 9 8 42 38 74 65 32 28 70 61
85 73 34 31 138 122 165 145 12 10 46 40 76 67 30 26 71 62 90 79 19 17 38 31
43 31 4 0 7 4 7 8 0 5 -20 9 -44 11 -25 1 -55 4 -67 6 -13 3 -62 7 -109 11
-47 3 -101 7 -120 9 -19 2 -73 6 -120 9 -47 4 -101 9 -120 11 -19 2 -75 7
-125 10 -49 4 -106 8 -125 11 -19 2 -66 6 -105 9 -38 3 -93 8 -120 10 -96 8
-270 23 -285 23 -8 1 -35 3 -60 6 -25 3 -76 7 -115 11 -38 3 -99 8 -135 11
-36 3 -83 7 -105 9 -22 2 -69 6 -105 9 -36 3 -96 8 -133 11 -38 2 -92 7 -120
10 -29 3 -79 7 -112 10 -33 3 -62 9 -65 13 -3 4 -17 32 -29 62 -13 30 -33 75
-44 100 -11 25 -23 54 -27 65 -7 19 -17 41 -55 130 -8 19 -23 52 -32 73 -10
20 -18 39 -18 42 -3 8 -148 354 -180 425 -7 17 -32 75 -55 130 -23 55 -48 114
-55 130 -12 25 -145 339 -315 740 -24 55 -50 116 -58 135 -9 19 -16 39 -16 44
-2 26 -24 11 -40 -26z"/>
</g>
</svg>
