<svg xmlns="http://www.w3.org/2000/svg" width="22" height="22" fill="none"><path fill="url(#paint0_linear)" d="M21.5 2.75v16.5c0 .63-.22 1.16-.66 1.6-.43.43-.96.65-1.59.65h-3.98v-8.3h2.8l.43-3.18h-3.23V8c0-.5.09-.88.28-1.13.25-.28.67-.42 1.26-.42h1.69v-2.8c-.66-.1-1.47-.15-2.44-.15-1.25 0-2.25.38-3 1.13a4.12 4.12 0 00-1.08 3.04v2.35H9.12v3.18h2.86v8.3H2.75c-.63 0-1.16-.22-1.6-.66a2.17 2.17 0 01-.65-1.59V2.75c0-.63.22-1.16.66-1.6C1.59.73 2.13.5 2.75.5h16.5c.63 0 1.16.22 1.6.66.43.43.65.97.65 1.59z"/><defs><linearGradient id="paint0_linear" x1="11" x2="11" y1="-1" y2="23" gradientUnits="userSpaceOnUse"><stop stop-color="#BC9CFF"/><stop offset="1" stop-color="#8BA4F9"/></linearGradient></defs></svg>