<svg xmlns="http://www.w3.org/2000/svg" width="22" height="22" fill="none"><path fill="url(#paint0_linear)" d="M11 5.6c-.97 0-1.88.26-2.72.76A5.4 5.4 0 005.61 11c0 .97.23 1.88.7 2.72.5.81 1.16 1.47 1.97 1.97a5.51 5.51 0 005.4 0A5.4 5.4 0 0011 5.6zm0 8.92c-.97 0-1.8-.35-2.48-1.04A3.39 3.39 0 017.48 11c0-.97.35-1.8 1.04-2.48A3.39 3.39 0 0111 7.48c.97 0 1.8.35 2.48 1.04A3.39 3.39 0 0114.52 11c0 .97-.35 1.8-1.04 2.48A3.39 3.39 0 0111 14.52zm6.9-9.14a1.4 1.4 0 01-.43.89c-.22.25-.5.37-.84.37-.35 0-.65-.12-.9-.37a1.22 1.22 0 01-.37-.9c0-.34.12-.64.37-.89s.55-.37.9-.37c.34 0 .64.12.89.37s.37.55.37.9zm3.55 1.26c-.06-.9-.2-1.69-.42-2.34a5.13 5.13 0 00-1.31-2.02A5.13 5.13 0 0017.7.97a8.36 8.36 0 00-2.34-.38C14.48.53 13.03.5 11 .5 8.97.5 7.5.53 6.6.6a8.2 8.2 0 00-2.3.37A5.54 5.54 0 00.97 4.3a9.54 9.54 0 00-.42 2.34C.52 7.52.5 8.97.5 11c0 2.03.02 3.5.05 4.4.06.88.2 1.65.42 2.3.28.78.7 1.47 1.26 2.07.6.56 1.29.96 2.07 1.21.65.25 1.42.4 2.3.43.9.06 2.37.09 4.4.09 2.03 0 3.48-.03 4.36-.1.9-.02 1.69-.15 2.34-.37a5.4 5.4 0 003.33-3.33 8.2 8.2 0 00.38-2.3 139.14 139.14 0 00.05-8.77zM19.2 17.2a3.55 3.55 0 01-2.01 2.01 9.4 9.4 0 01-2.53.38c-.66.03-1.63.05-2.91.05h-1.5a68.3 68.3 0 01-2.9-.05c-1.16-.06-2-.19-2.54-.38A3.55 3.55 0 012.8 17.2a9.87 9.87 0 01-.38-2.53c-.03-.7-.04-1.66-.04-2.91v-1.5c0-1.25.01-2.22.04-2.9A9.4 9.4 0 012.8 4.8 3.38 3.38 0 014.8 2.8a9.87 9.87 0 012.53-.38c.7-.03 1.66-.04 2.91-.04h1.5c1.25 0 2.22.01 2.9.04a9.4 9.4 0 012.54.38A3.38 3.38 0 0119.2 4.8c.2.5.32 1.35.38 2.53.03.66.05 1.63.05 2.91v1.5c0 1.25-.02 2.22-.05 2.9-.06 1.16-.19 2-.38 2.54z"/><defs><linearGradient id="paint0_linear" x1="11" x2="11" y1="-1" y2="23" gradientUnits="userSpaceOnUse"><stop stop-color="#BC9CFF"/><stop offset="1" stop-color="#8BA4F9"/></linearGradient></defs></svg>