<svg xmlns="http://www.w3.org/2000/svg" width="24" height="20" fill="none"><path fill="url(#paint0_linear)" d="M21.52 5.13c.03.12.04.32.04.6 0 2.25-.54 4.43-1.64 6.52a13.52 13.52 0 01-12.38 7.5c-2.74 0-5.26-.73-7.54-2.2.34.03.73.04 1.17.04 2.28 0 4.33-.7 6.14-2.1-1.1 0-2.06-.32-2.9-.94a5.08 5.08 0 01-1.7-2.44 6.24 6.24 0 002.2-.1 4.96 4.96 0 01-2.8-1.73 4.72 4.72 0 01-1.13-3.1V7.1c.7.41 1.43.63 2.2.66A5.46 5.46 0 011.6 5.97a4.75 4.75 0 01.1-4.83A13.65 13.65 0 0011.8 6.3c-.06-.38-.1-.75-.1-1.13 0-.87.23-1.69.66-2.44A4.77 4.77 0 0116.6.25c.72 0 1.38.14 1.97.42.63.28 1.17.66 1.64 1.13 1.13-.22 2.18-.61 3.14-1.18a4.88 4.88 0 01-2.15 2.72c.93-.12 1.87-.39 2.81-.8-.69 1-1.52 1.87-2.48 2.58z"/><defs><linearGradient id="paint0_linear" x1="12" x2="12" y1="-2" y2="22" gradientUnits="userSpaceOnUse"><stop stop-color="#BC9CFF"/><stop offset="1" stop-color="#8BA4F9"/></linearGradient></defs></svg>